<?xml version="1.0" encoding="UTF-8" standalone="no"?>
<!DOCTYPE svg PUBLIC "-//W3C//DTD SVG 1.1//EN" "http://www.w3.org/Graphics/SVG/1.1/DTD/svg11.dtd">
<!-- Создано Microsoft Visio, экспорт SVG (A-B).svg Page-1 -->
<svg xmlns="http://www.w3.org/2000/svg" xmlns:xlink="http://www.w3.org/1999/xlink" xmlns:ev="http://www.w3.org/2001/xml-events"
		xmlns:v="http://schemas.microsoft.com/visio/2003/SVGExtensions/" width="1.33858in" height="1.1811in"
		viewBox="0 0 96.378 85.0394" xml:space="preserve" color-interpolation-filters="sRGB" class="st9">
	<v:documentProperties v:langID="1049" v:metric="true" v:viewMarkup="false">
		<v:userDefs>
			<v:ud v:nameU="msvNoAutoConnect" v:val="VT0(1):26"/>
		</v:userDefs>
	</v:documentProperties>

	<style type="text/css">
	<![CDATA[
		.st1 {visibility:visible}
		.st2 {fill:none;filter:url(#filter_2.6666667461395);stroke:none;stroke-linecap:round;stroke-linejoin:round}
		.st3 {fill:#000000;filter:url(#filter_2.6666667461395);font-family:Bernard MT Condensed;font-size:4.00001em;opacity:0.4}
		.st4 {fill:none;stroke:none;stroke-linecap:round;stroke-linejoin:round;stroke-width:0.75}
		.st5 {fill:#d8d8d8;font-family:Bernard MT Condensed;font-size:4.00001em}
		.st6 {fill:#000000;fill-opacity:0.4;filter:url(#filter_2.6666667461395);stroke:none;stroke-linecap:round;stroke-linejoin:round}
		.st7 {fill:#d8d8d8;stroke:none;stroke-linecap:round;stroke-linejoin:round;stroke-width:0.5}
		.st8 {fill:#31859b;stroke:none;stroke-linecap:round;stroke-linejoin:round;stroke-width:0.5}
		.st9 {fill:none;fill-rule:evenodd;font-size:12px;overflow:visible;stroke-linecap:square;stroke-miterlimit:3}
	]]>
	</style>

	<defs id="Filters">
		<filter id="filter_2.6666667461395">
			<feGaussianBlur stdDeviation="2.6666667461395"/>
		</filter>
	</defs>
	<g v:mID="0" v:index="1" v:groupContext="foregroundPage">
		<title>Страница-1</title>
		<v:pageProperties v:drawingScale="0.0393701" v:pageScale="0.0393701" v:drawingUnits="24" v:shadowOffsetX="8.50394"
				v:shadowOffsetY="-8.50394"/>
		<g id="shape26-1" v:mID="26" v:groupContext="shape" transform="translate(0.599879,-0.35963)">
			<title>Лист.26</title>
			<desc>AB</desc>
			<v:textBlock v:margins="rect(4,4,4,4)" v:tabSpace="42.5197"/>
			<v:textRect cx="47.889" cy="42.8793" width="95.78" height="84.3201"/>
			<g id="shadow26-2" v:groupContext="shadow" v:shadowOffsetX="0" v:shadowOffsetY="-3" v:shadowType="1"
					transform="matrix(1,0,0,1,0,3)" class="st1">
				<rect x="0" y="0.719259" width="95.7781" height="84.3201" class="st2"/>
				<text x="23.39" y="57.28" class="st3" v:langID="1033"><v:paragraph v:horizAlign="1"/><v:tabList/>AB                                                                                                                          </text>			</g>
			<rect x="0" y="0.719259" width="95.7781" height="84.3201" class="st4"/>
			<text x="23.39" y="57.28" class="st5" v:langID="1033"><v:paragraph v:horizAlign="1"/><v:tabList/>AB                                                                                                                          </text>		</g>
		<g id="group78-9" transform="translate(0.599879,-0.35963)" v:mID="78" v:groupContext="group">
			<title>Лист.78</title>
			<g id="shape27-10" v:mID="27" v:groupContext="shape">
				<title>Лист.27</title>
				<g id="shadow27-11" v:groupContext="shadow" v:shadowOffsetX="3" v:shadowOffsetY="0" v:shadowType="1"
						transform="matrix(1,0,0,1,3,0)" class="st1">
					<path d="M30.23 67.6 C26.99 66.07 20.97 60.73 20.25 58.86 C20.08 58.35 19.23 56.81 18.31 55.45 C15.83 51.61 14.64
								 46.87 14.74 41.39 C14.81 38.71 15.18 35.95 15.59 35.13 C16 34.35 16.54 32.65 16.78 31.46 C17.02
								 30.2 17.87 28.15 18.72 26.93 C19.57 25.67 20.46 24.04 20.7 23.22 C20.93 22.44 22.06 20.9 23.18 19.82
								 C24.34 18.76 25.7 17.33 26.14 16.65 C26.55 15.97 28.25 14.78 29.82 14 C31.42 13.18 33.46 11.61 34.38
								 10.52 C35.66 8.32 36.88 8.22 38.58 7.99 L40.85 7.43 A2.07524 2.07524 -89.76 0 0 42.21 5.16 C41.7
								 3.46 40.3 3.44 37.54 3.1 C35.33 3.1 34.82 2.87 34.58 1.95 C34.21 0.55 32.61 0.31 30.16 1.4 C29.14
								 1.84 27.61 2.76 26.75 3.38 C25.53 4.4 25.22 4.46 24.85 3.72 C24.1 2.42 21.45 3.61 18.82 6.44 C17.63
								 7.73 16.34 8.72 16 8.58 C14.74 8.21 12.97 9.74 11.34 12.63 C10.42 14.27 9.63 15.36 9.63 15.05 C9.63
								 13.76 6.67 17.43 6.13 19.48 C5.79 20.8 4.8 22.5 4.09 23.36 C3 24.48 2.56 25.74 2.39 28.05 C2.25
								 29.75 1.91 31.18 1.64 31.18 C0.68 31.18 -0.13 35.44 0.45 37.58 C0.79 38.84 0.85 39.69 0.51 39.69
								 C-0.24 39.69 -0.13 44.39 0.62 46.33 C1.02 47.18 1.23 48.88 1.19 50.07 C1.13 51.47 1.57 53.14 2.42
								 54.6 C3.17 55.89 3.68 57.43 3.58 57.94 C3.27 59.2 4.6 61.75 6.47 63.45 C7.25 64.23 7.93 65.32 7.93
								 65.83 C7.93 67.26 11 70.6 13.04 71.45 C13.96 71.86 14.57 72.4 14.4 72.71 C13.89 73.49 15.93 75.47
								 18.42 76.55 C21.62 77.98 25.05 78.43 27.44 77.81 C28.52 77.47 29.99 77.34 30.63 77.51 C31.66 77.81
								 31.66 77.92 30.06 79.38 C28.01 81.25 27.91 82.95 29.61 84.15 C31.59 85.57 33.22 85.23 35.33 83.02
								 C36.97 81.25 37.44 81.05 38.39 81.56 C39.01 81.9 39.99 82.85 40.51 83.63 C41.56 85.3 42.99 85.47
								 45.37 84.21 C47.52 83.09 47.52 81.73 45.37 79.69 A33.4056 33.4056 -180 0 0 39.14 75.78 A5.70123
								 5.70123 135 0 1 36.88 74.36 A7.49676 7.49676 0 0 1 34.48 70.94 C33.8 69.75 32.44 68.62 30.23 67.6
								 Z" class="st6"/>
				</g>
				<path d="M30.23 67.6 C26.99 66.07 20.97 60.73 20.25 58.86 C20.08 58.35 19.23 56.81 18.31 55.45 C15.83 51.61 14.64
							 46.87 14.74 41.39 C14.81 38.71 15.18 35.95 15.59 35.13 C16 34.35 16.54 32.65 16.78 31.46 C17.02 30.2
							 17.87 28.15 18.72 26.93 C19.57 25.67 20.46 24.04 20.7 23.22 C20.93 22.44 22.06 20.9 23.18 19.82 C24.34
							 18.76 25.7 17.33 26.14 16.65 C26.55 15.97 28.25 14.78 29.82 14 C31.42 13.18 33.46 11.61 34.38 10.52
							 C35.66 8.32 36.88 8.22 38.58 7.99 L40.85 7.43 A2.07524 2.07524 -89.76 0 0 42.21 5.16 C41.7 3.46 40.3
							 3.44 37.54 3.1 C35.33 3.1 34.82 2.87 34.58 1.95 C34.21 0.55 32.61 0.31 30.16 1.4 C29.14 1.84 27.61 2.76
							 26.75 3.38 C25.53 4.4 25.22 4.46 24.85 3.72 C24.1 2.42 21.45 3.61 18.82 6.44 C17.63 7.73 16.34 8.72
							 16 8.58 C14.74 8.21 12.97 9.74 11.34 12.63 C10.42 14.27 9.63 15.36 9.63 15.05 C9.63 13.76 6.67 17.43
							 6.13 19.48 C5.79 20.8 4.8 22.5 4.09 23.36 C3 24.48 2.56 25.74 2.39 28.05 C2.25 29.75 1.91 31.18 1.64
							 31.18 C0.68 31.18 -0.13 35.44 0.45 37.58 C0.79 38.84 0.85 39.69 0.51 39.69 C-0.24 39.69 -0.13 44.39
							 0.62 46.33 C1.02 47.18 1.23 48.88 1.19 50.07 C1.13 51.47 1.57 53.14 2.42 54.6 C3.17 55.89 3.68 57.43
							 3.58 57.94 C3.27 59.2 4.6 61.75 6.47 63.45 C7.25 64.23 7.93 65.32 7.93 65.83 C7.93 67.26 11 70.6 13.04
							 71.45 C13.96 71.86 14.57 72.4 14.4 72.71 C13.89 73.49 15.93 75.47 18.42 76.55 C21.62 77.98 25.05 78.43
							 27.44 77.81 C28.52 77.47 29.99 77.34 30.63 77.51 C31.66 77.81 31.66 77.92 30.06 79.38 C28.01 81.25 27.91
							 82.95 29.61 84.15 C31.59 85.57 33.22 85.23 35.33 83.02 C36.97 81.25 37.44 81.05 38.39 81.56 C39.01 81.9
							 39.99 82.85 40.51 83.63 C41.56 85.3 42.99 85.47 45.37 84.21 C47.52 83.09 47.52 81.73 45.37 79.69 A33.4056
							 33.4056 -180 0 0 39.14 75.78 A5.70123 5.70123 135 0 1 36.88 74.36 A7.49676 7.49676 0 0 1 34.48 70.94
							 C33.8 69.75 32.44 68.62 30.23 67.6 Z" class="st7"/>
			</g>
			<g id="shape28-15" v:mID="28" v:groupContext="shape" transform="translate(34.5828,-78.26)">
				<title>Лист.28</title>
				<path d="M3.3 85.04 C5.24 85.04 6.53 84.26 6.02 83.41 C5.41 82.42 0 82.59 0 83.58 C0 84.46 1.26 85.04 3.3 85.04 Z"
						class="st8"/>
			</g>
			<g id="shape29-17" v:mID="29" v:groupContext="shape" transform="translate(27.5233,-79.5035)">
				<title>Лист.29</title>
				<path d="M5.36 83.32 C5.36 82.47 5.19 81.76 4.98 81.76 C4.23 81.76 1.17 83.46 0.32 84.31 C-0.36 84.99 -0.09 85.09
							 2.43 85.02 C5.26 84.99 5.36 84.92 5.36 83.32 Z" class="st8"/>
			</g>
			<g id="shape30-19" v:mID="30" v:groupContext="shape" transform="translate(17.8832,-73.206)">
				<title>Лист.30</title>
				<path d="M4.58 80.84 C5.3 80.39 5.94 79.58 5.94 79.13 C5.94 77.67 4.69 78.22 2.2 80.84 C0.67 82.44 -0.15 83.73 0.02
							 84.24 C0.6 85.6 1.79 85.19 2.54 83.39 C2.92 82.47 3.83 81.35 4.58 80.84 Z" class="st8"/>
			</g>
			<g id="shape31-21" v:mID="31" v:groupContext="shape" transform="translate(22.6704,-72.0312)">
				<title>Лист.31</title>
				<path d="M11.37 80.51 C11.91 79.42 11.81 79.39 8.13 79.42 C4.39 79.42 -0 80.68 0 81.7 C0 82.21 3.37 81.94 6.71 81.09
							 C8.99 80.51 9.02 80.78 6.81 81.94 C5.28 82.72 4.39 85.04 5.58 85.04 C6.47 85.04 10.72 81.7 11.37 80.51
							 Z" class="st8"/>
			</g>
			<g id="shape32-23" v:mID="32" v:groupContext="shape" transform="translate(12.0449,-66.0907)">
				<title>Лист.32</title>
				<path d="M4.33 79.75 C4.98 79.34 4.91 79 4.29 77.7 L3.44 76.17 L1.95 77.98 C-0.03 80.29 -0.47 82.23 0.48 84.03 C0.89
							 84.85 1.27 85.23 1.4 84.95 C1.44 84.71 1.78 83.42 2.12 82.06 C2.46 80.77 2.93 79.75 3.14 79.92 C3.44
							 80.09 3.95 79.95 4.33 79.75 Z" class="st8"/>
			</g>
			<g id="shape33-25" v:mID="33" v:groupContext="shape" transform="translate(15.9674,-66.6656)">
				<title>Лист.33</title>
				<path d="M1.5 81.85 C-1.67 84.78 0.54 84.78 4.83 81.89 C7.86 79.81 8.47 79.81 6.53 81.85 C5.51 82.91 5.14 83.83 5.34
							 84.44 C5.68 85.29 5.85 85.29 7.11 84.1 C8.71 82.63 10.11 80.15 10.11 78.82 C10.11 76.95 4.66 78.89 1.5
							 81.85 Z" class="st8"/>
			</g>
			<g id="shape34-27" v:mID="34" v:groupContext="shape" transform="translate(6.9986,-59.2376)">
				<title>Лист.34</title>
				<path d="M4.24 80.89 C4.85 79.8 4.78 79.36 3.93 77.93 C2.74 75.82 2.3 75.82 1.27 77.76 C-0.26 80.89 -0.43 83.04 0.87
							 84.23 C2.06 85.35 2.06 85.35 2.06 83.99 C2.06 83.21 2.23 81.74 2.47 80.72 L2.87 78.78 L3.21 80.48 C3.56
							 82.18 3.56 82.18 4.24 80.89 Z" class="st8"/>
			</g>
			<g id="shape35-29" v:mID="35" v:groupContext="shape" transform="translate(10.7707,-58.4165)">
				<title>Лист.35</title>
				<path d="M6.69 84.32 C7.78 83.07 9.07 79.49 9.07 77.96 C9.07 76.26 8.84 76.26 6.18 77.69 C2.68 79.56 -1.54 85.04
							 0.57 85.04 C0.84 85.04 2.34 83.81 3.8 82.21 C6.62 79.22 7.65 78.81 5.77 81.47 C4.82 82.83 4.75 83.24
							 5.4 84.09 C5.94 84.87 6.18 84.94 6.69 84.32 Z" class="st8"/>
			</g>
			<g id="shape36-31" v:mID="36" v:groupContext="shape" transform="translate(3.94923,-52.1919)">
				<title>Лист.36</title>
				<path d="M3.98 82.52 C3.71 82.7 3.06 82.12 2.55 81.27 L1.67 79.67 L2.01 81.37 C2.18 82.29 2.45 83.55 2.62 84.06 C2.96
							 85.11 2.45 85.28 0.92 84.74 C-0.37 84.23 -0.27 77.11 1.02 77.11 C1.19 77.11 2.11 77.79 2.96 78.64 C4.56
							 80.18 5 81.88 3.98 82.52 Z" class="st8"/>
			</g>
			<g id="shape37-33" v:mID="37" v:groupContext="shape" transform="translate(7.42483,-48.75)">
				<title>Лист.37</title>
				<path d="M7.89 77.42 C7.89 76.29 7.72 75.37 7.49 75.37 C6.4 75.44 3.33 77.89 2.04 79.8 C0.51 82.01 -0.51 85.04 0.27
							 85.04 C0.75 84.97 1.6 84.02 5.34 79.08 C6.12 78.06 6.12 78.16 5.38 80.04 C4.66 81.91 4.66 82.18 5.55
							 83 C6.53 83.85 6.63 83.78 7.21 81.67 C7.59 80.48 7.89 78.57 7.89 77.42 Z" class="st8"/>
			</g>
			<g id="shape38-35" v:mID="38" v:groupContext="shape" transform="translate(1.83274,-44.4317)">
				<title>Лист.38</title>
				<path d="M2.12 78.27 C0.48 77.25 0.48 77.25 0.14 78.61 C-0.43 80.82 0.82 84.5 2.25 84.84 C3.96 85.32 4.06 85.08 3.04
							 83.04 C1.74 80.55 1.95 80.21 3.62 82.12 C5.08 83.89 5.15 83.82 4.13 80.24 C3.96 79.7 3.11 78.78 2.12
							 78.27 Z" class="st8"/>
			</g>
			<g id="shape39-37" v:mID="39" v:groupContext="shape" transform="translate(1.70439,-36.0606)">
				<title>Лист.39</title>
				<path d="M1.97 78.14 C-0 77.22 0 77.22 0 79.16 C-0 81.91 1.63 84.71 3.44 84.94 C5.04 85.15 5.11 85.15 4.25 83.85
							 C1.4 79.43 1.36 79.36 2.42 80.21 C3.27 80.89 3.4 80.86 3.4 79.87 C3.4 79.26 2.76 78.48 1.97 78.14 Z"
						class="st8"/>
			</g>
			<g id="shape40-39" v:mID="40" v:groupContext="shape" transform="translate(2.82756,-28.3279)">
				<title>Лист.40</title>
				<path d="M0 79.46 C0 81.47 2.79 85.04 4.32 85.04 C6.06 85.04 6.02 84.9 3.91 82.49 C2.96 81.33 2.55 80.61 3.06 80.82
							 C3.98 81.16 4.42 79.7 3.57 79.19 C3.3 79.08 2.45 78.78 1.6 78.57 C0.24 78.27 0 78.4 0 79.46 Z"
						class="st8"/>
			</g>
			<g id="shape41-41" v:mID="41" v:groupContext="shape" transform="translate(6.80974,-39.1176)">
				<title>Лист.41</title>
				<path d="M6.13 78.81 C6.33 82.25 5.89 83 4.53 81.36 C4.12 80.85 3.95 79.93 4.19 79.01 C4.46 78.06 4.36 77.72 3.95
							 77.96 C3.68 78.13 3.4 78.57 3.4 78.84 C3.4 79.93 1.02 85.04 0.51 85.04 C0.2 85.04 -0 84.19 0 83.17 C0.03
							 79.66 3.91 73.4 5.28 74.76 C5.62 75.1 5.99 76.94 6.13 78.81 Z" class="st8"/>
			</g>
			<g id="shape42-43" v:mID="42" v:groupContext="shape" transform="translate(8.61227,-29.7299)">
				<title>Лист.42</title>
				<path d="M0.41 83.75 C1.36 86.31 2.15 85.01 2.21 80.59 C2.28 76.74 2.32 76.6 2.89 78.61 C3.23 79.91 3.92 80.76 4.66
							 81 C5.28 81.17 5.86 81.2 5.96 81.1 C6.3 80.76 4.36 75.92 3.47 74.97 C2.96 74.39 2.32 73.95 2.11 73.95
							 C0.58 73.95 -0.68 81.03 0.41 83.75 Z" class="st8"/>
			</g>
			<g id="shape43-45" v:mID="43" v:groupContext="shape" transform="translate(4.97181,-21.0749)">
				<title>Лист.43</title>
				<path d="M2.89 79.49 L0 79.49 L1.09 81.22 C2.45 83.67 4.76 85.31 6.43 85.04 C7.79 84.87 7.79 84.87 6.64 83.91 C6.02
							 83.33 5 82.48 4.39 82.04 C3.23 81.12 3.23 81.12 4.56 81.46 C5.58 81.73 5.79 81.56 5.79 80.68 C5.79 79.59
							 5.45 79.49 2.89 79.49 Z" class="st8"/>
			</g>
			<g id="shape44-47" v:mID="44" v:groupContext="shape" transform="translate(12.1995,-21.5562)">
				<title>Лист.44</title>
				<path d="M1.52 84.33 C3.15 86.3 3.46 84.09 2.2 78.81 C1.93 77.52 1.96 77.45 2.61 78.54 C3.46 80 4.82 81.09 5.84 81.09
							 C6.86 81.09 4.48 76.84 2.61 75.37 C1.86 74.73 1.08 74.29 0.84 74.29 C-0.59 74.29 -0.08 82.45 1.52 84.33
							 Z" class="st8"/>
			</g>
			<g id="shape45-49" v:mID="45" v:groupContext="shape" transform="translate(17.0204,-15.3913)">
				<title>Лист.45</title>
				<path d="M6.81 80.61 C6.81 80.37 5.96 79.52 4.87 78.67 C3.78 77.89 2.25 76.97 1.46 76.63 C0.03 76.12 -0 76.19 0 77.92
							 C0 79.97 2.14 84.7 3.27 85.04 C4.36 85.38 4.08 82.93 2.72 80.65 L1.53 78.6 L3.17 80.1 C4.7 81.39 6.81
							 81.74 6.81 80.61 Z" class="st8"/>
			</g>
			<g id="shape46-51" v:mID="46" v:groupContext="shape" transform="translate(10.0772,-14.1686)">
				<title>Лист.46</title>
				<path d="M6.19 80.85 C5.96 80.27 5.79 79.73 5.79 79.59 C5.79 78.74 0.14 79.93 0 80.78 C-0.17 81.7 4.66 85.04 6.09
							 85.04 C8.85 85.04 8.13 83.24 5.07 82.49 C2.86 81.94 2.55 81.02 4.73 81.47 C6.3 81.77 6.47 81.7 6.19
							 80.85 Z" class="st8"/>
			</g>
			<g id="shape47-53" v:mID="47" v:groupContext="shape" transform="translate(16.4719,-8.48441)">
				<title>Лист.47</title>
				<path d="M8.58 85.04 C11.78 85.04 9.74 83.24 5.35 82.25 C3.14 81.74 3.14 81.74 4.97 81.7 C6.88 81.64 7.22 81.19 6.1
							 80.04 C5.69 79.66 5.31 79.36 5.14 79.36 C4.46 79.42 0.41 80.95 0.14 81.3 C-0.98 82.42 4.91 85.04 8.58
							 85.04 Z" class="st8"/>
			</g>
			<g id="shape48-55" v:mID="48" v:groupContext="shape" transform="translate(34.5948,-1.68547)">
				<title>Лист.48</title>
				<path d="M6.8 83.86 C7.48 85.22 9.18 85.46 10.16 84.3 C10.95 83.28 9.48 81.92 4.72 79.16 C0.74 76.81 1.01 76.88 0.16
							 77.73 C-0.35 78.24 0.33 78.92 2.85 80.55 C4.65 81.75 6.45 83.24 6.8 83.86 Z" class="st8"/>
			</g>
			<g id="shape49-57" v:mID="49" v:groupContext="shape" transform="translate(30.1277,-1.80991)">
				<title>Лист.49</title>
				<path d="M4.08 83.71 C4.76 82.79 5.31 81.84 5.31 81.5 C5.31 80.41 3.06 80.65 1.53 81.94 C-0.48 83.54 -0.48 84.49
							 1.36 84.93 C2.48 85.24 3.06 84.93 4.08 83.71 Z" class="st8"/>
			</g>
			<g id="shape50-59" v:mID="50" v:groupContext="shape" transform="translate(22.6704,-9.16514)">
				<title>Лист.50</title>
				<path d="M11.37 82.72 C11.37 83.44 11.13 83.44 9.84 82.55 C6.98 80.68 3.37 78.81 3.13 79.01 C3.03 79.15 4.56 80.51
							 6.6 82.08 C9.67 84.36 10.11 84.94 9.16 85.04 C6.53 85.45 0 79.93 0 77.31 C0 76.36 2.18 76.46 5.28 77.55
							 C8.13 78.5 11.37 81.23 11.37 82.72 Z" class="st8"/>
			</g>
		</g>
		<g id="group79-61" transform="translate(48.189,-0.35963)" v:mID="79" v:groupContext="group">
			<title>Лист.79</title>
			<g id="shape51-62" v:mID="51" v:groupContext="shape" transform="translate(46.9803,0) scale(-1,1)">
				<title>Лист.51</title>
				<g id="shadow51-63" v:groupContext="shadow" v:shadowOffsetX="-3" v:shadowOffsetY="-3.67394E-016" v:shadowType="1"
						transform="matrix(1,0,0,1,3,0)" class="st1">
					<path d="M30.23 67.6 C26.99 66.07 20.97 60.73 20.25 58.86 C20.08 58.35 19.23 56.81 18.31 55.45 C15.83 51.61 14.64
								 46.87 14.74 41.39 C14.81 38.71 15.18 35.95 15.59 35.13 C16 34.35 16.54 32.65 16.78 31.46 C17.02
								 30.2 17.87 28.15 18.72 26.93 C19.57 25.67 20.46 24.04 20.7 23.22 C20.93 22.44 22.06 20.9 23.18 19.82
								 C24.34 18.76 25.7 17.33 26.14 16.65 C26.55 15.97 28.25 14.78 29.82 14 C31.42 13.18 33.46 11.61 34.38
								 10.52 C35.66 8.32 36.88 8.22 38.58 7.99 L40.85 7.43 A2.07524 2.07524 -89.76 0 0 42.21 5.16 C41.7
								 3.46 40.3 3.44 37.54 3.1 C35.33 3.1 34.82 2.87 34.58 1.95 C34.21 0.55 32.61 0.31 30.16 1.4 C29.14
								 1.84 27.61 2.76 26.75 3.38 C25.53 4.4 25.22 4.46 24.85 3.72 C24.1 2.42 21.45 3.61 18.82 6.44 C17.63
								 7.73 16.34 8.72 16 8.58 C14.74 8.21 12.97 9.74 11.34 12.63 C10.42 14.27 9.63 15.36 9.63 15.05 C9.63
								 13.76 6.67 17.43 6.13 19.48 C5.79 20.8 4.8 22.5 4.09 23.36 C3 24.48 2.56 25.74 2.39 28.05 C2.25
								 29.75 1.91 31.18 1.64 31.18 C0.68 31.18 -0.13 35.44 0.45 37.58 C0.79 38.84 0.85 39.69 0.51 39.69
								 C-0.24 39.69 -0.13 44.39 0.62 46.33 C1.02 47.18 1.23 48.88 1.19 50.07 C1.13 51.47 1.57 53.14 2.42
								 54.6 C3.17 55.89 3.68 57.43 3.58 57.94 C3.27 59.2 4.6 61.75 6.47 63.45 C7.25 64.23 7.93 65.32 7.93
								 65.83 C7.93 67.26 11 70.6 13.04 71.45 C13.96 71.86 14.57 72.4 14.4 72.71 C13.89 73.49 15.93 75.47
								 18.42 76.55 C21.62 77.98 25.05 78.43 27.44 77.81 C28.52 77.47 29.99 77.34 30.63 77.51 C31.66 77.81
								 31.66 77.92 30.06 79.38 C28.01 81.25 27.91 82.95 29.61 84.15 C31.59 85.57 33.22 85.23 35.33 83.02
								 C36.97 81.25 37.44 81.05 38.39 81.56 C39.01 81.9 39.99 82.85 40.51 83.63 C41.56 85.3 42.99 85.47
								 45.37 84.21 C47.52 83.09 47.52 81.73 45.37 79.69 A33.4056 33.4056 -180 0 0 39.14 75.78 A5.70123
								 5.70123 135 0 1 36.88 74.36 A7.49676 7.49676 0 0 1 34.48 70.94 C33.8 69.75 32.44 68.62 30.23 67.6
								 Z" class="st6"/>
				</g>
				<path d="M30.23 67.6 C26.99 66.07 20.97 60.73 20.25 58.86 C20.08 58.35 19.23 56.81 18.31 55.45 C15.83 51.61 14.64
							 46.87 14.74 41.39 C14.81 38.71 15.18 35.95 15.59 35.13 C16 34.35 16.54 32.65 16.78 31.46 C17.02 30.2
							 17.87 28.15 18.72 26.93 C19.57 25.67 20.46 24.04 20.7 23.22 C20.93 22.44 22.06 20.9 23.18 19.82 C24.34
							 18.76 25.7 17.33 26.14 16.65 C26.55 15.97 28.25 14.78 29.82 14 C31.42 13.18 33.46 11.61 34.38 10.52
							 C35.66 8.32 36.88 8.22 38.58 7.99 L40.85 7.43 A2.07524 2.07524 -89.76 0 0 42.21 5.16 C41.7 3.46 40.3
							 3.44 37.54 3.1 C35.33 3.1 34.82 2.87 34.58 1.95 C34.21 0.55 32.61 0.31 30.16 1.4 C29.14 1.84 27.61 2.76
							 26.75 3.38 C25.53 4.4 25.22 4.46 24.85 3.72 C24.1 2.42 21.45 3.61 18.82 6.44 C17.63 7.73 16.34 8.72
							 16 8.58 C14.74 8.21 12.97 9.74 11.34 12.63 C10.42 14.27 9.63 15.36 9.63 15.05 C9.63 13.76 6.67 17.43
							 6.13 19.48 C5.79 20.8 4.8 22.5 4.09 23.36 C3 24.48 2.56 25.74 2.39 28.05 C2.25 29.75 1.91 31.18 1.64
							 31.18 C0.68 31.18 -0.13 35.44 0.45 37.58 C0.79 38.84 0.85 39.69 0.51 39.69 C-0.24 39.69 -0.13 44.39
							 0.62 46.33 C1.02 47.18 1.23 48.88 1.19 50.07 C1.13 51.47 1.57 53.14 2.42 54.6 C3.17 55.89 3.68 57.43
							 3.58 57.94 C3.27 59.2 4.6 61.75 6.47 63.45 C7.25 64.23 7.93 65.32 7.93 65.83 C7.93 67.26 11 70.6 13.04
							 71.45 C13.96 71.86 14.57 72.4 14.4 72.71 C13.89 73.49 15.93 75.47 18.42 76.55 C21.62 77.98 25.05 78.43
							 27.44 77.81 C28.52 77.47 29.99 77.34 30.63 77.51 C31.66 77.81 31.66 77.92 30.06 79.38 C28.01 81.25 27.91
							 82.95 29.61 84.15 C31.59 85.57 33.22 85.23 35.33 83.02 C36.97 81.25 37.44 81.05 38.39 81.56 C39.01 81.9
							 39.99 82.85 40.51 83.63 C41.56 85.3 42.99 85.47 45.37 84.21 C47.52 83.09 47.52 81.73 45.37 79.69 A33.4056
							 33.4056 -180 0 0 39.14 75.78 A5.70123 5.70123 135 0 1 36.88 74.36 A7.49676 7.49676 0 0 1 34.48 70.94
							 C33.8 69.75 32.44 68.62 30.23 67.6 Z" class="st7"/>
			</g>
			<g id="group52-67" transform="translate(45.276,-1.68547) scale(-1,1)" v:mID="52" v:groupContext="group">
				<title>Лист.52</title>
				<g id="shape53-68" v:mID="53" v:groupContext="shape" transform="translate(32.8785,-76.5745)">
					<title>Лист.53</title>
					<path d="M3.3 85.04 C5.24 85.04 6.53 84.26 6.02 83.41 C5.41 82.42 0 82.59 0 83.58 C0 84.46 1.26 85.04 3.3 85.04
								 Z" class="st8"/>
				</g>
				<g id="shape54-70" v:mID="54" v:groupContext="shape" transform="translate(25.819,-77.818)">
					<title>Лист.54</title>
					<path d="M5.36 83.32 C5.36 82.47 5.19 81.76 4.98 81.76 C4.23 81.76 1.17 83.46 0.32 84.31 C-0.36 84.99 -0.09 85.09
								 2.43 85.02 C5.26 84.99 5.36 84.92 5.36 83.32 Z" class="st8"/>
				</g>
				<g id="shape55-72" v:mID="55" v:groupContext="shape" transform="translate(16.1788,-71.5206)">
					<title>Лист.55</title>
					<path d="M4.58 80.84 C5.3 80.39 5.94 79.58 5.94 79.13 C5.94 77.67 4.69 78.22 2.2 80.84 C0.67 82.44 -0.15 83.73
								 0.02 84.24 C0.6 85.6 1.79 85.19 2.54 83.39 C2.92 82.47 3.83 81.35 4.58 80.84 Z" class="st8"/>
				</g>
				<g id="shape56-74" v:mID="56" v:groupContext="shape" transform="translate(20.966,-70.3457)">
					<title>Лист.56</title>
					<path d="M11.37 80.51 C11.91 79.42 11.81 79.39 8.13 79.42 C4.39 79.42 -0 80.68 0 81.7 C0 82.21 3.37 81.94 6.71
								 81.09 C8.99 80.51 9.02 80.78 6.81 81.94 C5.28 82.72 4.39 85.04 5.58 85.04 C6.47 85.04 10.72 81.7
								 11.37 80.51 Z" class="st8"/>
				</g>
				<g id="shape57-76" v:mID="57" v:groupContext="shape" transform="translate(10.3405,-64.4053)">
					<title>Лист.57</title>
					<path d="M4.33 79.75 C4.98 79.34 4.91 79 4.29 77.7 L3.44 76.17 L1.95 77.98 C-0.03 80.29 -0.47 82.23 0.48 84.03
								 C0.89 84.85 1.27 85.23 1.4 84.95 C1.44 84.71 1.78 83.42 2.12 82.06 C2.46 80.77 2.93 79.75 3.14 79.92
								 C3.44 80.09 3.95 79.95 4.33 79.75 Z" class="st8"/>
				</g>
				<g id="shape58-78" v:mID="58" v:groupContext="shape" transform="translate(14.263,-64.9802)">
					<title>Лист.58</title>
					<path d="M1.5 81.85 C-1.67 84.78 0.54 84.78 4.83 81.89 C7.86 79.81 8.47 79.81 6.53 81.85 C5.51 82.91 5.14 83.83
								 5.34 84.44 C5.68 85.29 5.85 85.29 7.11 84.1 C8.71 82.63 10.11 80.15 10.11 78.82 C10.11 76.95 4.66
								 78.89 1.5 81.85 Z" class="st8"/>
				</g>
				<g id="shape59-80" v:mID="59" v:groupContext="shape" transform="translate(5.29421,-57.5521)">
					<title>Лист.59</title>
					<path d="M4.24 80.89 C4.85 79.8 4.78 79.36 3.93 77.93 C2.74 75.82 2.3 75.82 1.27 77.76 C-0.26 80.89 -0.43 83.04
								 0.87 84.23 C2.06 85.35 2.06 85.35 2.06 83.99 C2.06 83.21 2.23 81.74 2.47 80.72 L2.87 78.78 L3.21
								 80.48 C3.56 82.18 3.56 82.18 4.24 80.89 Z" class="st8"/>
				</g>
				<g id="shape60-82" v:mID="60" v:groupContext="shape" transform="translate(9.06631,-56.731)">
					<title>Лист.60</title>
					<path d="M6.69 84.32 C7.78 83.07 9.07 79.49 9.07 77.96 C9.07 76.26 8.84 76.26 6.18 77.69 C2.68 79.56 -1.54 85.04
								 0.57 85.04 C0.84 85.04 2.34 83.81 3.8 82.21 C6.62 79.22 7.65 78.81 5.77 81.47 C4.82 82.83 4.75 83.24
								 5.4 84.09 C5.94 84.87 6.18 84.94 6.69 84.32 Z" class="st8"/>
				</g>
				<g id="shape61-84" v:mID="61" v:groupContext="shape" transform="translate(2.24484,-50.5064)">
					<title>Лист.61</title>
					<path d="M3.98 82.52 C3.71 82.7 3.06 82.12 2.55 81.27 L1.67 79.67 L2.01 81.37 C2.18 82.29 2.45 83.55 2.62 84.06
								 C2.96 85.11 2.45 85.28 0.92 84.74 C-0.37 84.23 -0.27 77.11 1.02 77.11 C1.19 77.11 2.11 77.79 2.96
								 78.64 C4.56 80.18 5 81.88 3.98 82.52 Z" class="st8"/>
				</g>
				<g id="shape62-86" v:mID="62" v:groupContext="shape" transform="translate(5.72044,-47.0645)">
					<title>Лист.62</title>
					<path d="M7.89 77.42 C7.89 76.29 7.72 75.37 7.49 75.37 C6.4 75.44 3.33 77.89 2.04 79.8 C0.51 82.01 -0.51 85.04
								 0.27 85.04 C0.75 84.97 1.6 84.02 5.34 79.08 C6.12 78.06 6.12 78.16 5.38 80.04 C4.66 81.91 4.66 82.18
								 5.55 83 C6.53 83.85 6.63 83.78 7.21 81.67 C7.59 80.48 7.89 78.57 7.89 77.42 Z" class="st8"/>
				</g>
				<g id="shape63-88" v:mID="63" v:groupContext="shape" transform="translate(0.128349,-42.7462)">
					<title>Лист.63</title>
					<path d="M2.12 78.27 C0.48 77.25 0.48 77.25 0.14 78.61 C-0.43 80.82 0.82 84.5 2.25 84.84 C3.96 85.32 4.06 85.08
								 3.04 83.04 C1.74 80.55 1.95 80.21 3.62 82.12 C5.08 83.89 5.15 83.82 4.13 80.24 C3.96 79.7 3.11 78.78
								 2.12 78.27 Z" class="st8"/>
				</g>
				<g id="shape64-90" v:mID="64" v:groupContext="shape" transform="translate(2.44804E-014,-34.3751)">
					<title>Лист.64</title>
					<path d="M1.97 78.14 C-0 77.22 0 77.22 0 79.16 C-0 81.91 1.63 84.71 3.44 84.94 C5.04 85.15 5.11 85.15 4.25 83.85
								 C1.4 79.43 1.36 79.36 2.42 80.21 C3.27 80.89 3.4 80.86 3.4 79.87 C3.4 79.26 2.76 78.48 1.97 78.14
								 Z" class="st8"/>
				</g>
				<g id="shape65-92" v:mID="65" v:groupContext="shape" transform="translate(1.12318,-26.6424)">
					<title>Лист.65</title>
					<path d="M0 79.46 C0 81.47 2.79 85.04 4.32 85.04 C6.06 85.04 6.02 84.9 3.91 82.49 C2.96 81.33 2.55 80.61 3.06
								 80.82 C3.98 81.16 4.42 79.7 3.57 79.19 C3.3 79.08 2.45 78.78 1.6 78.57 C0.24 78.27 0 78.4 0 79.46
								 Z" class="st8"/>
				</g>
				<g id="shape66-94" v:mID="66" v:groupContext="shape" transform="translate(5.10535,-37.4321)">
					<title>Лист.66</title>
					<path d="M6.13 78.81 C6.33 82.25 5.89 83 4.53 81.36 C4.12 80.85 3.95 79.93 4.19 79.01 C4.46 78.06 4.36 77.72
								 3.95 77.96 C3.68 78.13 3.4 78.57 3.4 78.84 C3.4 79.93 1.02 85.04 0.51 85.04 C0.2 85.04 -0 84.19
								 0 83.17 C0.03 79.66 3.91 73.4 5.28 74.76 C5.62 75.1 5.99 76.94 6.13 78.81 Z" class="st8"/>
				</g>
				<g id="shape67-96" v:mID="67" v:groupContext="shape" transform="translate(6.90789,-28.0444)">
					<title>Лист.67</title>
					<path d="M0.41 83.75 C1.36 86.31 2.15 85.01 2.21 80.59 C2.28 76.74 2.32 76.6 2.89 78.61 C3.23 79.91 3.92 80.76
								 4.66 81 C5.28 81.17 5.86 81.2 5.96 81.1 C6.3 80.76 4.36 75.92 3.47 74.97 C2.96 74.39 2.32 73.95
								 2.11 73.95 C0.58 73.95 -0.68 81.03 0.41 83.75 Z" class="st8"/>
				</g>
				<g id="shape68-98" v:mID="68" v:groupContext="shape" transform="translate(3.26742,-19.3894)">
					<title>Лист.68</title>
					<path d="M2.89 79.49 L0 79.49 L1.09 81.22 C2.45 83.67 4.76 85.31 6.43 85.04 C7.79 84.87 7.79 84.87 6.64 83.91
								 C6.02 83.33 5 82.48 4.39 82.04 C3.23 81.12 3.23 81.12 4.56 81.46 C5.58 81.73 5.79 81.56 5.79 80.68
								 C5.79 79.59 5.45 79.49 2.89 79.49 Z" class="st8"/>
				</g>
				<g id="shape69-100" v:mID="69" v:groupContext="shape" transform="translate(10.4952,-19.8707)">
					<title>Лист.69</title>
					<path d="M1.52 84.33 C3.15 86.3 3.46 84.09 2.2 78.81 C1.93 77.52 1.96 77.45 2.61 78.54 C3.46 80 4.82 81.09 5.84
								 81.09 C6.86 81.09 4.48 76.84 2.61 75.37 C1.86 74.73 1.08 74.29 0.84 74.29 C-0.59 74.29 -0.08 82.45
								 1.52 84.33 Z" class="st8"/>
				</g>
				<g id="shape70-102" v:mID="70" v:groupContext="shape" transform="translate(15.3161,-13.7058)">
					<title>Лист.70</title>
					<path d="M6.81 80.61 C6.81 80.37 5.96 79.52 4.87 78.67 C3.78 77.89 2.25 76.97 1.46 76.63 C0.03 76.12 -0 76.19
								 0 77.92 C0 79.97 2.14 84.7 3.27 85.04 C4.36 85.38 4.08 82.93 2.72 80.65 L1.53 78.6 L3.17 80.1 C4.7
								 81.39 6.81 81.74 6.81 80.61 Z" class="st8"/>
				</g>
				<g id="shape71-104" v:mID="71" v:groupContext="shape" transform="translate(8.37278,-12.4831)">
					<title>Лист.71</title>
					<path d="M6.19 80.85 C5.96 80.27 5.79 79.73 5.79 79.59 C5.79 78.74 0.14 79.93 0 80.78 C-0.17 81.7 4.66 85.04
								 6.09 85.04 C8.85 85.04 8.13 83.24 5.07 82.49 C2.86 81.94 2.55 81.02 4.73 81.47 C6.3 81.77 6.47 81.7
								 6.19 80.85 Z" class="st8"/>
				</g>
				<g id="shape72-106" v:mID="72" v:groupContext="shape" transform="translate(14.7675,-6.79894)">
					<title>Лист.72</title>
					<path d="M8.58 85.04 C11.78 85.04 9.74 83.24 5.35 82.25 C3.14 81.74 3.14 81.74 4.97 81.7 C6.88 81.64 7.22 81.19
								 6.1 80.04 C5.69 79.66 5.31 79.36 5.14 79.36 C4.46 79.42 0.41 80.95 0.14 81.3 C-0.98 82.42 4.91 85.04
								 8.58 85.04 Z" class="st8"/>
				</g>
				<g id="shape73-108" v:mID="73" v:groupContext="shape" transform="translate(32.8904,-1.42109E-014)">
					<title>Лист.73</title>
					<path d="M6.8 83.86 C7.48 85.22 9.18 85.46 10.16 84.3 C10.95 83.28 9.48 81.92 4.72 79.16 C0.74 76.81 1.01 76.88
								 0.16 77.73 C-0.35 78.24 0.33 78.92 2.85 80.55 C4.65 81.75 6.45 83.24 6.8 83.86 Z" class="st8"/>
				</g>
				<g id="shape74-110" v:mID="74" v:groupContext="shape" transform="translate(28.4233,-0.124438)">
					<title>Лист.74</title>
					<path d="M4.08 83.71 C4.76 82.79 5.31 81.84 5.31 81.5 C5.31 80.41 3.06 80.65 1.53 81.94 C-0.48 83.54 -0.48 84.49
								 1.36 84.93 C2.48 85.24 3.06 84.93 4.08 83.71 Z" class="st8"/>
				</g>
				<g id="shape75-112" v:mID="75" v:groupContext="shape" transform="translate(20.966,-7.47967)">
					<title>Лист.75</title>
					<path d="M11.37 82.72 C11.37 83.44 11.13 83.44 9.84 82.55 C6.98 80.68 3.37 78.81 3.13 79.01 C3.03 79.15 4.56
								 80.51 6.6 82.08 C9.67 84.36 10.11 84.94 9.16 85.04 C6.53 85.45 0 79.93 0 77.31 C0 76.36 2.18 76.46
								 5.28 77.55 C8.13 78.5 11.37 81.23 11.37 82.72 Z" class="st8"/>
				</g>
			</g>
		</g>
	</g>
</svg>
