<?xml version="1.0" encoding="UTF-8" standalone="no"?>
<svg
   xmlns:dc="http://purl.org/dc/elements/1.1/"
   xmlns:cc="http://creativecommons.org/ns#"
   xmlns:rdf="http://www.w3.org/1999/02/22-rdf-syntax-ns#"
   xmlns:svg="http://www.w3.org/2000/svg"
   xmlns="http://www.w3.org/2000/svg"
   version="1.1"
   id="svg3655"
   viewBox="0 0 744.09448819 1052.3622047"
   height="297mm"
   width="210mm">
  <defs
     id="defs3657" />
  <metadata
     id="metadata3660">
    <rdf:RDF>
      <cc:Work
         rdf:about="">
        <dc:format>image/svg+xml</dc:format>
        <dc:type
           rdf:resource="http://purl.org/dc/dcmitype/StillImage" />
        <dc:title></dc:title>
      </cc:Work>
    </rdf:RDF>
  </metadata>
  <g
     id="layer1">
    <path
       style="fill:#d8d8d8;fill-opacity:1;fill-rule:evenodd;stroke:none"
       d="m 26.021308,42.547744 c -1.5209,-0.70527 -4.3422,-3.21818 -4.6728,-4.09978 -0.088,-0.24246 -0.4849,-0.96983 -0.9258,-1.60904 -1.1682,-1.80743 -1.7192,-4.03363 -1.6751,-6.61252 0.022,-1.25637 0.1983,-2.55682 0.3967,-2.93153 0.1984,-0.3747 0.4408,-1.1682 0.551,-1.74128 0.1323,-0.59512 0.5291,-1.54294 0.9258,-2.11602 0.3968,-0.59512 0.8156,-1.36657 0.9258,-1.76332 0.1102,-0.35267 0.6392,-1.08004 1.1682,-1.58699 0.551,-0.50696 1.1902,-1.16823 1.3886,-1.49886 0.1984,-0.30858 0.9919,-0.88166 1.7413,-1.23432 0.7494,-0.39675 1.6972,-1.12412 2.138,-1.63108 0.5951,-1.03595 1.1682,-1.10208 1.9617,-1.19024 l 1.0801,-0.2645 c 0.4408,-0.17633 0.7053,-0.61716 0.6392,-1.08005 -0.2425,-0.7935 -0.9037,-0.7935 -2.2042,-0.96984 -1.0359,0 -1.2784,-0.11021 -1.3886,-0.529 -0.1763,-0.66125 -0.9258,-0.77146 -2.0719,-0.2645 -0.4849,0.19838 -1.2123,0.63921 -1.6091,0.92575 -0.5731,0.48492 -0.7053,0.50696 -0.8816,0.15429 -0.3527,-0.59512 -1.6091,-0.0441 -2.8434,1.27843 -0.551,0.61717 -1.1682,1.08004 -1.3225,1.01392 -0.5951,-0.17634 -1.4327,0.55103 -2.2042,1.91761 -0.4188,0.77146 -0.7935,1.27841 -0.7935,1.12412 0,-0.59512 -1.3886,1.12412 -1.6531,2.09398 -0.1543,0.61716 -0.6172,1.41066 -0.9478,1.8074 -0.529,0.529 -0.7274,1.12412 -0.8155,2.2262 -0.066,0.79353 -0.2204,1.45477 -0.3527,1.45477 -0.4408,0 -0.8155,2.00578 -0.551,3.0197 0.1543,0.59512 0.1983,0.99187 0.022,0.99187 -0.3527,0 -0.2865,2.20418 0.066,3.12992 0.1764,0.39675 0.2866,1.19025 0.2645,1.74129 -0.044,0.66124 0.1764,1.45474 0.5731,2.13806 0.3527,0.61716 0.5951,1.32249 0.5511,1.56495 -0.1543,0.59512 0.4849,1.78528 1.3445,2.6009 0.3747,0.35278 0.7053,0.88166 0.7053,1.12409 0,0.66125 1.4327,2.22617 2.4026,2.62297 0.4188,0.19841 0.7053,0.46285 0.6392,0.59521 -0.2425,0.37479 0.7053,1.30048 1.8735,1.80735 1.5209,0.68326 3.1299,0.88166 4.254,0.59521 0.507,-0.15438 1.1903,-0.22042 1.4989,-0.13236 0.4849,0.13236 0.4849,0.17639 -0.2645,0.88166 -0.9699,0.88166 -1.0139,1.67527 -0.2204,2.22617 0.9257,0.68326 1.6972,0.50715 2.6891,-0.52889 0.7714,-0.81562 0.9918,-0.92569 1.4547,-0.68326 0.2865,0.1541 0.7494,0.61722 0.9919,0.96972 0.4849,0.79361 1.1682,0.88166 2.2703,0.28674 1.0139,-0.52917 1.0139,-1.1684 0,-2.13812 -0.9037,-0.70527 -1.8736,-1.32249 -2.9095,-1.82965 -0.4188,-0.13208 -0.7715,-0.3745 -1.0801,-0.66124 -0.5069,-0.41854 -0.9037,-0.99173 -1.1241,-1.63096 -0.3086,-0.55118 -0.9698,-1.08007 -2.0058,-1.56493 z"
       id="path3578" />
    <path
       style="fill:#31859b;fill-opacity:1;fill-rule:evenodd;stroke:none"
       d="m 29.636108,13.959684 c 0.9037,0 1.5209,-0.37471 1.2785,-0.77147 -0.2866,-0.46288 -2.8434,-0.39675 -2.8434,0.0882 0,0.39677 0.5951,0.68331 1.5649,0.68331 z"
       id="path3580" />
    <path
       style="fill:#31859b;fill-opacity:1;fill-rule:evenodd;stroke:none"
       d="m 27.277708,12.571044 c 0,-0.41879 -0.088,-0.74942 -0.1763,-0.74942 -0.3527,0 -1.7854,0.7935 -2.2042,1.21229 -0.3086,0.30859 -0.1764,0.35267 0.9919,0.33063 1.3445,-0.022 1.3886,-0.0441 1.3886,-0.7935 z"
       id="path3582" />
    <path
       style="fill:#31859b;fill-opacity:1;fill-rule:evenodd;stroke:none"
       d="m 22.384408,14.356424 c 0.3307,-0.22041 0.6392,-0.59512 0.6392,-0.79351 0,-0.70533 -0.5951,-0.44083 -1.7633,0.79351 -0.7273,0.74942 -1.1021,1.36658 -1.0359,1.60904 0.2865,0.6392 0.8376,0.44083 1.1902,-0.41879 0.1763,-0.41879 0.6172,-0.94779 0.9698,-1.19025 z"
       id="path3584" />
    <path
       style="fill:#31859b;fill-opacity:1;fill-rule:evenodd;stroke:none"
       d="m 27.828708,14.753174 c 0.2425,-0.50695 0.1984,-0.52899 -1.5208,-0.50695 -1.7634,0 -3.8353,0.59512 -3.8353,1.05799 0,0.24246 1.587,0.13225 3.152,-0.28654 1.08,-0.2645 1.1021,-0.13225 0.044,0.41879 -0.7054,0.35267 -1.1242,1.45474 -0.5731,1.45474 0.4188,0 2.4246,-1.58699 2.7331,-2.13803 z"
       id="path3586" />
    <path
       style="fill:#31859b;fill-opacity:1;fill-rule:evenodd;stroke:none"
       d="m 19.519008,17.177744 c 0.3086,-0.17633 0.2645,-0.35266 -0.022,-0.94778 l -0.3968,-0.72737 -0.7053,0.85962 c -0.9258,1.08003 -1.1462,1.98374 -0.6833,2.84339 0.1763,0.3747 0.3527,0.55103 0.4188,0.44083 0.022,-0.13225 0.1763,-0.7274 0.3527,-1.36661 0.1543,-0.61716 0.3747,-1.10208 0.4628,-1.01391 0.1543,0.0882 0.3968,0.022 0.5731,-0.0882 z"
       id="path3588" />
    <path
       style="fill:#31859b;fill-opacity:1;fill-rule:evenodd;stroke:none"
       d="m 20.026008,17.905124 c -1.4989,1.38864 -0.4409,1.38864 1.5649,0.022 1.4327,-0.96983 1.7193,-0.96983 0.7935,-0.0221 -0.4628,0.50696 -0.6392,0.92575 -0.551,1.21229 0.1543,0.39678 0.2425,0.39678 0.8376,-0.15429 0.7494,-0.68329 1.4106,-1.85149 1.4106,-2.4907 0,-0.85962 -2.5568,0.0441 -4.0556,1.4327 z"
       id="path3590" />
    <path
       style="fill:#31859b;fill-opacity:1;fill-rule:evenodd;stroke:none"
       d="m 17.094408,20.946884 c 0.2866,-0.50696 0.2645,-0.72737 -0.1322,-1.38862 -0.5731,-0.9919 -0.7715,-0.9919 -1.2564,-0.0882 -0.7273,1.47679 -0.7935,2.4907 -0.1983,3.04174 0.573,0.529 0.573,0.529 0.573,-0.11021 0,-0.37471 0.066,-1.05799 0.1764,-1.54291 l 0.1983,-0.9037 0.1543,0.79349 c 0.1764,0.81554 0.1764,0.81554 0.4849,0.19838 z"
       id="path3592" />
    <path
       style="fill:#31859b;fill-opacity:1;fill-rule:evenodd;stroke:none"
       d="m 20.026008,22.952664 c 0.507,-0.59512 1.1241,-2.27028 1.1241,-2.99765 0,-0.7935 -0.1102,-0.7935 -1.3666,-0.13225 -1.6531,0.88166 -3.6368,3.46052 -2.645,3.46052 0.1323,0 0.8376,-0.57308 1.5209,-1.32249 1.3446,-1.41066 1.8074,-1.60903 0.9257,-0.35267 -0.4408,0.63921 -0.4628,0.83758 -0.1763,1.23433 0.2645,0.35267 0.3747,0.39675 0.6172,0.11021 z"
       id="path3594" />
    <path
       style="fill:#31859b;fill-opacity:1;fill-rule:evenodd;stroke:none"
       d="m 15.551508,25.024594 c -0.1322,0.0882 -0.4408,-0.17633 -0.6833,-0.59515 l -0.4187,-0.74941 0.1763,0.81554 c 0.066,0.41882 0.1984,1.01394 0.2865,1.2564 0.1543,0.48491 -0.088,0.57308 -0.8155,0.30858 -0.5951,-0.22042 -0.5511,-3.57076 0.066,-3.57076 0.066,0 0.507,0.30858 0.9037,0.70533 0.7494,0.72737 0.9478,1.52086 0.4849,1.82947 z"
       id="path3596" />
    <path
       style="fill:#31859b;fill-opacity:1;fill-rule:evenodd;stroke:none"
       d="m 19.012108,24.253114 c 0,-0.529 -0.066,-0.96983 -0.1764,-0.96983 -0.529,0.0441 -1.9617,1.19025 -2.5788,2.07194 -0.7054,1.05799 -1.1903,2.46865 -0.8156,2.46865 0.2204,-0.022 0.6172,-0.46287 2.3805,-2.79928 0.3747,-0.48494 0.3747,-0.41881 0.022,0.46288 -0.3527,0.85962 -0.3527,0.99187 0.066,1.38861 0.4629,0.39675 0.5069,0.35267 0.7935,-0.6392 0.1763,-0.55104 0.3086,-1.45474 0.3086,-1.98377 z"
       id="path3598" />
    <path
       style="fill:#31859b;fill-opacity:1;fill-rule:evenodd;stroke:none"
       d="m 13.678008,26.677714 c -0.7715,-0.48491 -0.7715,-0.48491 -0.9258,0.15429 -0.2865,1.03595 0.3086,2.77724 0.9919,2.93153 0.7935,0.22041 0.8376,0.11021 0.3527,-0.83758 -0.5951,-1.1682 -0.507,-1.34454 0.2865,-0.44083 0.6833,0.83758 0.7054,0.79349 0.2425,-0.88166 -0.088,-0.24246 -0.4849,-0.68329 -0.9478,-0.92575 z"
       id="path3600" />
    <path
       style="fill:#31859b;fill-opacity:1;fill-rule:evenodd;stroke:none"
       d="m 13.545708,30.557054 c -0.9257,-0.44086 -0.9257,-0.44086 -0.9257,0.48492 0,1.27841 0.7714,2.6009 1.609,2.71111 0.7495,0.0882 0.7935,0.0882 0.3968,-0.50696 -1.3446,-2.09395 -1.3666,-2.11599 -0.8817,-1.71924 0.4188,0.33062 0.4629,0.30858 0.4629,-0.15429 0,-0.28654 -0.2866,-0.66125 -0.6613,-0.81554 z"
       id="path3602" />
    <path
       style="fill:#31859b;fill-opacity:1;fill-rule:evenodd;stroke:none"
       d="m 13.149008,34.811074 c 0,0.94779 1.3005,2.62298 2.0278,2.62298 0.8156,0 0.7935,-0.0661 -0.1983,-1.19025 -0.4409,-0.55106 -0.6393,-0.88169 -0.3968,-0.79352 0.4408,0.15429 0.6392,-0.529 0.2425,-0.77146 -0.1323,-0.0441 -0.529,-0.19837 -0.9258,-0.28654 -0.6392,-0.15429 -0.7494,-0.0882 -0.7494,0.41879 z"
       id="path3604" />
    <path
       style="fill:#31859b;fill-opacity:1;fill-rule:evenodd;stroke:none"
       d="m 17.887908,29.432914 c 0.1102,1.60906 -0.1102,1.96172 -0.7494,1.19027 -0.1763,-0.24246 -0.2645,-0.66128 -0.1543,-1.10211 0.1323,-0.44083 0.088,-0.59512 -0.1102,-0.48491 -0.1322,0.0661 -0.2645,0.28654 -0.2645,0.41879 0,0.50695 -1.102,2.90951 -1.3445,2.90951 -0.1543,0 -0.2425,-0.39675 -0.2425,-0.88166 0,-1.65315 1.8295,-4.60672 2.4687,-3.94547 0.1763,0.15429 0.3527,1.01391 0.3967,1.89558 z"
       id="path3606" />
    <path
       style="fill:#31859b;fill-opacity:1;fill-rule:evenodd;stroke:none"
       d="m 16.058508,36.177684 c 0.4408,1.19024 0.8155,0.57308 0.8376,-1.49886 0.044,-1.8074 0.066,-1.87353 0.3306,-0.92574 0.1543,0.61716 0.4849,1.01391 0.8376,1.12412 0.2865,0.0661 0.551,0.0882 0.5951,0.0441 0.1763,-0.15429 -0.7494,-2.42457 -1.1682,-2.88744 -0.2425,-0.2645 -0.529,-0.48492 -0.6392,-0.48492 -0.7053,0 -1.3005,3.35032 -0.7935,4.62876 z"
       id="path3608" />
    <path
       style="fill:#31859b;fill-opacity:1;fill-rule:evenodd;stroke:none"
       d="m 15.507508,38.227544 -1.3446,0 0.507,0.81557 c 0.6392,1.16812 1.7192,1.9177 2.5127,1.80735 0.6392,-0.088 0.6392,-0.088 0.088,-0.52889 -0.2866,-0.28673 -0.7715,-0.68326 -1.058,-0.88166 -0.529,-0.44083 -0.529,-0.44083 0.088,-0.28674 0.485,0.13237 0.5731,0.0663 0.5731,-0.35255 0,-0.52899 -0.1543,-0.57308 -1.3665,-0.57308 z"
       id="path3610" />
    <path
       style="fill:#31859b;fill-opacity:1;fill-rule:evenodd;stroke:none"
       d="m 18.262608,40.277554 c 0.7715,0.92569 0.9258,-0.11035 0.3307,-2.579 -0.1323,-0.61717 -0.1102,-0.63921 0.1763,-0.13225 0.4188,0.68328 1.058,1.19024 1.5209,1.19024 0.4849,0 -0.6392,-2.00578 -1.5209,-2.68907 -0.3527,-0.30861 -0.7053,-0.50698 -0.8155,-0.50698 -0.6833,0 -0.4409,3.8354 0.3085,4.71706 z"
       id="path3612" />
    <path
       style="fill:#31859b;fill-opacity:1;fill-rule:evenodd;stroke:none"
       d="m 23.023608,41.445674 c 0,-0.13237 -0.3967,-0.52917 -0.9257,-0.92569 -0.507,-0.37479 -1.2343,-0.79361 -1.587,-0.94799 -0.6833,-0.24243 -0.6833,-0.22041 -0.6833,0.59521 0,0.96971 0.9919,3.19617 1.5209,3.35026 0.529,0.15437 0.3967,-0.99173 -0.2425,-2.07179 l -0.573,-0.94771 0.7714,0.70528 c 0.7274,0.59492 1.7192,0.7493 1.7192,0.24243 z"
       id="path3614" />
    <path
       style="fill:#31859b;fill-opacity:1;fill-rule:evenodd;stroke:none"
       d="m 19.474908,42.128934 c -0.1102,-0.28646 -0.1983,-0.52889 -0.1983,-0.59521 0,-0.39681 -2.6671,0.15437 -2.7332,0.55118 -0.066,0.44083 2.2042,2.00575 2.8654,2.00575 1.3005,0 0.9699,-0.83763 -0.4629,-1.19041 -1.058,-0.26444 -1.1902,-0.70527 -0.1763,-0.48486 0.7494,0.13236 0.8155,0.11035 0.7053,-0.28645 z"
       id="path3616" />
    <path
       style="fill:#31859b;fill-opacity:1;fill-rule:evenodd;stroke:none"
       d="m 23.596708,46.757654 c 1.4989,0 0.5511,-0.83763 -1.5208,-1.30048 -1.036,-0.24243 -1.036,-0.24243 -0.1764,-0.26444 0.9037,-0.022 1.058,-0.24243 0.529,-0.7716 -0.1983,-0.1761 -0.3747,-0.33048 -0.4408,-0.33048 -0.3306,0.022 -2.2262,0.7493 -2.3585,0.90368 -0.529,0.52888 2.2483,1.76332 3.9675,1.76332 z"
       id="path3618" />
    <path
       style="fill:#31859b;fill-opacity:1;fill-rule:evenodd;stroke:none"
       d="m 31.267208,49.402644 c 0.3307,0.63923 1.1242,0.74958 1.587,0.22041 0.3747,-0.48485 -0.3085,-1.12409 -2.5568,-2.42457 -1.8735,-1.10207 -1.7413,-1.08006 -2.138,-0.68326 -0.2425,0.24243 0.066,0.5732 1.2563,1.34451 0.8596,0.55118 1.6973,1.25645 1.8515,1.54291 z"
       id="path3620" />
    <path
       style="fill:#31859b;fill-opacity:1;fill-rule:evenodd;stroke:none"
       d="m 27.894908,49.270284 c 0.3306,-0.41854 0.573,-0.88167 0.573,-1.03576 0,-0.50715 -1.058,-0.3968 -1.7633,0.22042 -0.9478,0.7493 -0.9478,1.19013 -0.088,1.38853 0.529,0.15438 0.7935,0 1.2785,-0.57319 z"
       id="path3622" />
    <path
       style="fill:#31859b;fill-opacity:1;fill-rule:evenodd;stroke:none"
       d="m 27.828708,45.347114 c 0,0.35249 -0.1102,0.35249 -0.7273,-0.0663 -1.3446,-0.88167 -3.0418,-1.76333 -3.152,-1.67499 -0.044,0.066 0.6612,0.70527 1.6311,1.45457 1.4327,1.05805 1.6531,1.34451 1.1902,1.38882 -1.2122,0.1761 -4.2981,-2.40256 -4.2981,-3.637 0,-0.44083 1.036,-0.39681 2.4907,0.11035 1.3446,0.44083 2.8654,1.71901 2.8654,2.42457 z"
       id="path3624" />
  </g>
</svg>
