<?xml version="1.0" encoding="UTF-8" standalone="no"?>
<!DOCTYPE svg PUBLIC "-//W3C//DTD SVG 1.1//EN" "http://www.w3.org/Graphics/SVG/1.1/DTD/svg11.dtd">
<!-- Создано Microsoft Visio, экспорт SVG С.svg Страница-1 -->
<svg xmlns="http://www.w3.org/2000/svg" xmlns:xlink="http://www.w3.org/1999/xlink" xmlns:ev="http://www.w3.org/2001/xml-events"
		xmlns:v="http://schemas.microsoft.com/visio/2003/SVGExtensions/" width="0.659449in" height="1.17806in"
		viewBox="0 0 47.4803 84.8201" xml:space="preserve" color-interpolation-filters="sRGB" class="st3">
	<v:documentProperties v:langID="1049" v:metric="true" v:viewMarkup="false"/>

	<style type="text/css">
	<![CDATA[
		.st1 {fill:#d8d8d8;stroke:none;stroke-linecap:round;stroke-linejoin:round;stroke-width:0.5}
		.st2 {fill:#31859b;stroke:none;stroke-linecap:round;stroke-linejoin:round;stroke-width:0.5}
		.st3 {fill:none;fill-rule:evenodd;font-size:12px;overflow:visible;stroke-linecap:square;stroke-miterlimit:3}
	]]>
	</style>

	<g v:mID="0" v:index="1" v:groupContext="foregroundPage">
		<title>Страница-1</title>
		<v:pageProperties v:drawingScale="0.0393701" v:pageScale="0.0393701" v:drawingUnits="24" v:shadowOffsetX="8.50394"
				v:shadowOffsetY="-8.50394"/>
		<g id="group25-1" transform="translate(0.25,-0.25)" v:mID="25" v:groupContext="group">
			<title>Лист.25</title>
			<g id="shape1-2" v:mID="1" v:groupContext="shape">
				<title>Лист.1</title>
				<path d="M30.23 67.38 C26.99 65.85 20.97 60.51 20.25 58.64 C20.08 58.13 19.23 56.59 18.31 55.23 C15.83 51.39 14.64
							 46.66 14.74 41.18 C14.81 38.49 15.18 35.73 15.59 34.91 C16 34.13 16.54 32.43 16.78 31.24 C17.02 29.98
							 17.87 27.94 18.72 26.71 C19.57 25.45 20.46 23.82 20.7 23 C20.93 22.22 22.06 20.69 23.18 19.6 C24.34
							 18.54 25.7 17.11 26.14 16.43 C26.55 15.75 28.25 14.56 29.82 13.78 C31.42 12.96 33.46 11.39 34.38 10.3
							 C35.66 8.1 36.88 8 38.58 7.77 L40.85 7.21 A2.07524 2.07524 -89.76 0 0 42.21 4.94 C41.7 3.24 40.3 3.22
							 37.54 2.88 C35.33 2.88 34.82 2.65 34.58 1.73 C34.21 0.33 32.61 0.09 30.16 1.18 C29.14 1.62 27.61 2.54
							 26.75 3.16 C25.53 4.18 25.22 4.25 24.85 3.5 C24.1 2.2 21.45 3.39 18.82 6.22 C17.63 7.51 16.34 8.5 16
							 8.36 C14.74 7.99 12.97 9.52 11.34 12.41 C10.42 14.05 9.63 15.14 9.63 14.83 C9.63 13.54 6.67 17.21 6.13
							 19.26 C5.79 20.58 4.8 22.29 4.09 23.14 C3 24.26 2.56 25.52 2.39 27.83 C2.25 29.54 1.91 30.96 1.64 30.96
							 C0.68 30.96 -0.13 35.22 0.45 37.36 C0.79 38.62 0.85 39.47 0.51 39.47 C-0.24 39.47 -0.13 44.17 0.62 46.11
							 C1.02 46.96 1.23 48.66 1.19 49.86 C1.13 51.25 1.57 52.92 2.42 54.38 C3.17 55.68 3.68 57.21 3.58 57.72
							 C3.27 58.98 4.6 61.53 6.47 63.23 C7.25 64.01 7.93 65.1 7.93 65.61 C7.93 67.04 11 70.38 13.04 71.23 C13.96
							 71.64 14.57 72.18 14.4 72.49 C13.89 73.27 15.93 75.25 18.42 76.34 C21.62 77.77 25.05 78.21 27.44 77.6
							 C28.52 77.25 29.99 77.12 30.63 77.29 C31.66 77.6 31.66 77.7 30.06 79.16 C28.01 81.03 27.91 82.73 29.61
							 83.93 C31.59 85.36 33.22 85.02 35.33 82.8 C36.97 81.03 37.44 80.83 38.39 81.34 C39.01 81.68 39.99 82.63
							 40.51 83.42 C41.56 85.08 42.99 85.25 45.37 83.99 C47.52 82.87 47.52 81.51 45.37 79.47 A33.4056 33.4056
							 -180 0 0 39.14 75.56 A5.70123 5.70123 135 0 1 36.88 74.15 A7.49676 7.49676 0 0 1 34.48 70.72 C33.8 69.53
							 32.44 68.41 30.23 67.38 Z" class="st1"/>
			</g>
			<g id="shape2-4" v:mID="2" v:groupContext="shape" transform="translate(34.5828,-78.26)">
				<title>Лист.2</title>
				<path d="M3.3 84.82 C5.24 84.82 6.53 84.04 6.02 83.19 C5.41 82.2 0 82.37 0 83.36 C0 84.24 1.26 84.82 3.3 84.82 Z"
						class="st2"/>
			</g>
			<g id="shape3-6" v:mID="3" v:groupContext="shape" transform="translate(27.5233,-79.5035)">
				<title>Лист.3</title>
				<path d="M5.36 83.1 C5.36 82.25 5.19 81.54 4.98 81.54 C4.23 81.54 1.17 83.24 0.32 84.09 C-0.36 84.77 -0.09 84.87
							 2.43 84.8 C5.26 84.77 5.36 84.7 5.36 83.1 Z" class="st2"/>
			</g>
			<g id="shape4-8" v:mID="4" v:groupContext="shape" transform="translate(17.8832,-73.206)">
				<title>Лист.4</title>
				<path d="M4.58 80.62 C5.3 80.17 5.94 79.36 5.94 78.92 C5.94 77.45 4.69 78 2.2 80.62 C0.67 82.22 -0.15 83.51 0.02
							 84.02 C0.6 85.38 1.79 84.97 2.54 83.17 C2.92 82.25 3.83 81.13 4.58 80.62 Z" class="st2"/>
			</g>
			<g id="shape5-10" v:mID="5" v:groupContext="shape" transform="translate(22.6704,-72.0312)">
				<title>Лист.5</title>
				<path d="M11.37 80.29 C11.91 79.2 11.81 79.17 8.13 79.2 C4.39 79.2 -0 80.46 0 81.48 C0 82 3.37 81.72 6.71 80.87 C8.99
							 80.29 9.02 80.57 6.81 81.72 C5.28 82.51 4.39 84.82 5.58 84.82 C6.47 84.82 10.72 81.48 11.37 80.29 Z"
						class="st2"/>
			</g>
			<g id="shape6-12" v:mID="6" v:groupContext="shape" transform="translate(12.0449,-66.0907)">
				<title>Лист.6</title>
				<path d="M4.33 79.53 C4.98 79.12 4.91 78.78 4.29 77.48 L3.44 75.95 L1.95 77.76 C-0.03 80.07 -0.47 82.01 0.48 83.81
							 C0.89 84.63 1.27 85.01 1.4 84.73 C1.44 84.5 1.78 83.2 2.12 81.84 C2.46 80.55 2.93 79.53 3.14 79.7 C3.44
							 79.87 3.95 79.73 4.33 79.53 Z" class="st2"/>
			</g>
			<g id="shape7-14" v:mID="7" v:groupContext="shape" transform="translate(15.9674,-66.6656)">
				<title>Лист.7</title>
				<path d="M1.5 81.63 C-1.67 84.56 0.54 84.56 4.83 81.67 C7.86 79.59 8.47 79.59 6.53 81.63 C5.51 82.69 5.14 83.61 5.34
							 84.22 C5.68 85.07 5.85 85.07 7.11 83.88 C8.71 82.42 10.11 79.93 10.11 78.6 C10.11 76.73 4.66 78.67 1.5
							 81.63 Z" class="st2"/>
			</g>
			<g id="shape8-16" v:mID="8" v:groupContext="shape" transform="translate(6.9986,-59.2376)">
				<title>Лист.8</title>
				<path d="M4.24 80.67 C4.85 79.58 4.78 79.14 3.93 77.71 C2.74 75.6 2.3 75.6 1.27 77.54 C-0.26 80.67 -0.43 82.82 0.87
							 84.01 C2.06 85.13 2.06 85.13 2.06 83.77 C2.06 82.99 2.23 81.52 2.47 80.5 L2.87 78.56 L3.21 80.26 C3.56
							 81.97 3.56 81.97 4.24 80.67 Z" class="st2"/>
			</g>
			<g id="shape9-18" v:mID="9" v:groupContext="shape" transform="translate(10.7707,-58.4165)">
				<title>Лист.9</title>
				<path d="M6.69 84.11 C7.78 82.85 9.07 79.27 9.07 77.74 C9.07 76.04 8.84 76.04 6.18 77.47 C2.68 79.34 -1.54 84.82
							 0.57 84.82 C0.84 84.82 2.34 83.59 3.8 82 C6.62 79 7.65 78.59 5.77 81.25 C4.82 82.61 4.75 83.02 5.4 83.87
							 C5.94 84.65 6.18 84.72 6.69 84.11 Z" class="st2"/>
			</g>
			<g id="shape10-20" v:mID="10" v:groupContext="shape" transform="translate(3.94923,-52.1919)">
				<title>Лист.10</title>
				<path d="M3.98 82.31 C3.71 82.48 3.06 81.9 2.55 81.05 L1.67 79.45 L2.01 81.15 C2.18 82.07 2.45 83.33 2.62 83.84 C2.96
							 84.89 2.45 85.06 0.92 84.52 C-0.37 84.01 -0.27 76.89 1.02 76.89 C1.19 76.89 2.11 77.57 2.96 78.43 C4.56
							 79.96 5 81.66 3.98 82.31 Z" class="st2"/>
			</g>
			<g id="shape11-22" v:mID="11" v:groupContext="shape" transform="translate(7.42483,-48.75)">
				<title>Лист.11</title>
				<path d="M7.89 77.2 C7.89 76.07 7.72 75.15 7.49 75.15 C6.4 75.22 3.33 77.67 2.04 79.58 C0.51 81.79 -0.51 84.82 0.27
							 84.82 C0.75 84.75 1.6 83.8 5.34 78.86 C6.12 77.84 6.12 77.94 5.38 79.82 C4.66 81.69 4.66 81.96 5.55
							 82.78 C6.53 83.63 6.63 83.56 7.21 81.45 C7.59 80.26 7.89 78.35 7.89 77.2 Z" class="st2"/>
			</g>
			<g id="shape12-24" v:mID="12" v:groupContext="shape" transform="translate(1.83274,-44.4317)">
				<title>Лист.12</title>
				<path d="M2.12 78.05 C0.48 77.03 0.48 77.03 0.14 78.39 C-0.43 80.6 0.82 84.28 2.25 84.62 C3.96 85.1 4.06 84.86 3.04
							 82.82 C1.74 80.33 1.95 79.99 3.62 81.9 C5.08 83.67 5.15 83.6 4.13 80.03 C3.96 79.48 3.11 78.56 2.12
							 78.05 Z" class="st2"/>
			</g>
			<g id="shape13-26" v:mID="13" v:groupContext="shape" transform="translate(1.70439,-36.0606)">
				<title>Лист.13</title>
				<path d="M1.97 77.92 C-0 77 0 77 0 78.94 C-0 81.7 1.63 84.49 3.44 84.72 C5.04 84.93 5.11 84.93 4.25 83.64 C1.4 79.21
							 1.36 79.14 2.42 79.99 C3.27 80.67 3.4 80.64 3.4 79.65 C3.4 79.04 2.76 78.26 1.97 77.92 Z" class="st2"/>
			</g>
			<g id="shape14-28" v:mID="14" v:groupContext="shape" transform="translate(2.82756,-28.3279)">
				<title>Лист.14</title>
				<path d="M0 79.24 C0 81.25 2.79 84.82 4.32 84.82 C6.06 84.82 6.02 84.68 3.91 82.27 C2.96 81.11 2.55 80.4 3.06 80.6
							 C3.98 80.94 4.42 79.48 3.57 78.97 C3.3 78.86 2.45 78.56 1.6 78.35 C0.24 78.05 0 78.18 0 79.24 Z"
						class="st2"/>
			</g>
			<g id="shape15-30" v:mID="15" v:groupContext="shape" transform="translate(6.80974,-39.1176)">
				<title>Лист.15</title>
				<path d="M6.13 78.59 C6.33 82.03 5.89 82.78 4.53 81.14 C4.12 80.63 3.95 79.71 4.19 78.8 C4.46 77.84 4.36 77.5 3.95
							 77.74 C3.68 77.91 3.4 78.35 3.4 78.63 C3.4 79.71 1.02 84.82 0.51 84.82 C0.2 84.82 -0 83.97 0 82.95 C0.03
							 79.44 3.91 73.18 5.28 74.54 C5.62 74.88 5.99 76.72 6.13 78.59 Z" class="st2"/>
			</g>
			<g id="shape16-32" v:mID="16" v:groupContext="shape" transform="translate(8.61227,-29.7299)">
				<title>Лист.16</title>
				<path d="M0.41 83.53 C1.36 86.09 2.15 84.79 2.21 80.37 C2.28 76.52 2.32 76.39 2.89 78.39 C3.23 79.69 3.92 80.54 4.66
							 80.78 C5.28 80.95 5.86 80.98 5.96 80.88 C6.3 80.54 4.36 75.7 3.47 74.75 C2.96 74.17 2.32 73.73 2.11
							 73.73 C0.58 73.73 -0.68 80.81 0.41 83.53 Z" class="st2"/>
			</g>
			<g id="shape17-34" v:mID="17" v:groupContext="shape" transform="translate(4.97181,-21.0749)">
				<title>Лист.17</title>
				<path d="M2.89 79.27 L0 79.27 L1.09 81 C2.45 83.46 4.76 85.09 6.43 84.82 C7.79 84.65 7.79 84.65 6.64 83.69 C6.02
							 83.12 5 82.26 4.39 81.82 C3.23 80.9 3.23 80.9 4.56 81.24 C5.58 81.52 5.79 81.35 5.79 80.46 C5.79 79.37
							 5.45 79.27 2.89 79.27 Z" class="st2"/>
			</g>
			<g id="shape18-36" v:mID="18" v:groupContext="shape" transform="translate(12.1995,-21.5562)">
				<title>Лист.18</title>
				<path d="M1.52 84.11 C3.15 86.08 3.46 83.87 2.2 78.59 C1.93 77.3 1.96 77.23 2.61 78.32 C3.46 79.78 4.82 80.87 5.84
							 80.87 C6.86 80.87 4.48 76.62 2.61 75.16 C1.86 74.51 1.08 74.07 0.84 74.07 C-0.59 74.07 -0.08 82.23 1.52
							 84.11 Z" class="st2"/>
			</g>
			<g id="shape19-38" v:mID="19" v:groupContext="shape" transform="translate(17.0204,-15.3913)">
				<title>Лист.19</title>
				<path d="M6.81 80.39 C6.81 80.15 5.96 79.3 4.87 78.45 C3.78 77.67 2.25 76.75 1.46 76.41 C0.03 75.9 -0 75.97 0 77.7
							 C0 79.75 2.14 84.48 3.27 84.82 C4.36 85.16 4.08 82.71 2.72 80.43 L1.53 78.38 L3.17 79.88 C4.7 81.18
							 6.81 81.52 6.81 80.39 Z" class="st2"/>
			</g>
			<g id="shape20-40" v:mID="20" v:groupContext="shape" transform="translate(10.0772,-14.1686)">
				<title>Лист.20</title>
				<path d="M6.19 80.63 C5.96 80.05 5.79 79.51 5.79 79.37 C5.79 78.52 0.14 79.71 0 80.57 C-0.17 81.48 4.66 84.82 6.09
							 84.82 C8.85 84.82 8.13 83.02 5.07 82.27 C2.86 81.72 2.55 80.8 4.73 81.25 C6.3 81.55 6.47 81.48 6.19
							 80.63 Z" class="st2"/>
			</g>
			<g id="shape21-42" v:mID="21" v:groupContext="shape" transform="translate(16.4719,-8.48441)">
				<title>Лист.21</title>
				<path d="M8.58 84.82 C11.78 84.82 9.74 83.02 5.35 82.03 C3.14 81.52 3.14 81.52 4.97 81.48 C6.88 81.42 7.22 80.97
							 6.1 79.82 C5.69 79.44 5.31 79.14 5.14 79.14 C4.46 79.2 0.41 80.74 0.14 81.08 C-0.98 82.2 4.91 84.82
							 8.58 84.82 Z" class="st2"/>
			</g>
			<g id="shape22-44" v:mID="22" v:groupContext="shape" transform="translate(34.5948,-1.68547)">
				<title>Лист.22</title>
				<path d="M6.8 83.64 C7.48 85 9.18 85.24 10.16 84.08 C10.95 83.06 9.48 81.7 4.72 78.94 C0.74 76.59 1.01 76.66 0.16
							 77.51 C-0.35 78.02 0.33 78.7 2.85 80.34 C4.65 81.53 6.45 83.02 6.8 83.64 Z" class="st2"/>
			</g>
			<g id="shape23-46" v:mID="23" v:groupContext="shape" transform="translate(30.1277,-1.80991)">
				<title>Лист.23</title>
				<path d="M4.08 83.49 C4.76 82.57 5.31 81.62 5.31 81.28 C5.31 80.19 3.06 80.43 1.53 81.72 C-0.48 83.32 -0.48 84.27
							 1.36 84.71 C2.48 85.02 3.06 84.71 4.08 83.49 Z" class="st2"/>
			</g>
			<g id="shape24-48" v:mID="24" v:groupContext="shape" transform="translate(22.6704,-9.16514)">
				<title>Лист.24</title>
				<path d="M11.37 82.51 C11.37 83.22 11.13 83.22 9.84 82.34 C6.98 80.46 3.37 78.59 3.13 78.8 C3.03 78.93 4.56 80.29
							 6.6 81.86 C9.67 84.14 10.11 84.72 9.16 84.82 C6.53 85.23 0 79.71 0 77.09 C0 76.14 2.18 76.24 5.28 77.33
							 C8.13 78.29 11.37 81.01 11.37 82.51 Z" class="st2"/>
			</g>
		</g>
	</g>
</svg>
